<svg fill="#aaa" width="149px" height="149px" viewBox="0 0 24.00 24.00" xmlns="http://www.w3.org/2000/svg" stroke="#aaa" transform="rotate(0)"><g id="SVGRepo_bgCarrier" stroke-width="0"></g><g id="SVGRepo_tracerCarrier" stroke-linecap="round" stroke-linejoin="round" stroke="#ff" stroke-width="1.584"><path d="M11.421,3.707,3.707,11.421a1,1,0,0,1-1.414-1.414l7.714-7.714a1,1,0,0,1,1.414,1.414Zm7.715,1.157a1,1,0,0,0-1.414,0l-7.715,7.715a1,1,0,1,0,1.414,1.414l7.715-7.715A1,1,0,0,0,19.136,4.864Zm1.157,7.715-7.714,7.714a1,1,0,1,0,1.414,1.414l7.714-7.714a1,1,0,0,0-1.414-1.414Z"></path></g><g id="SVGRepo_iconCarrier"><path d="M11.421,3.707,3.707,11.421a1,1,0,0,1-1.414-1.414l7.714-7.714a1,1,0,0,1,1.414,1.414Zm7.715,1.157a1,1,0,0,0-1.414,0l-7.715,7.715a1,1,0,1,0,1.414,1.414l7.715-7.715A1,1,0,0,0,19.136,4.864Zm1.157,7.715-7.714,7.714a1,1,0,1,0,1.414,1.414l7.714-7.714a1,1,0,0,0-1.414-1.414Z"></path></g></svg>